<?xml version="1.0" standalone="no"?>
<!DOCTYPE svg PUBLIC "-//W3C//DTD SVG 20010904//EN"
 "http://www.w3.org/TR/2001/REC-SVG-20010904/DTD/svg10.dtd">
<svg version="1.0" xmlns="http://www.w3.org/2000/svg"
 width="180.000000pt" height="180.000000pt" viewBox="0 0 180.000000 180.000000"
 preserveAspectRatio="xMidYMid meet">
<metadata>
Created by potrace 1.11, written by Peter Selinger 2001-2013
</metadata>
<g transform="translate(0.000000,180.000000) scale(0.100000,-0.100000)"
fill="#000000" stroke="none">
<path d="M10 900 l0 -890 890 0 890 0 0 890 0 890 -890 0 -890 0 0 -890z m440
244 l0 -194 -25 0 c-29 0 -26 -21 -26 230 0 139 2 155 18 161 10 4 21 5 26 2
4 -2 7 -92 7 -199z m947 184 c13 -13 23 -33 23 -50 0 -24 -4 -28 -30 -28 -23
0 -30 4 -30 20 0 14 -7 20 -21 20 -18 0 -20 -5 -17 -52 3 -51 4 -53 33 -56 53
-6 65 -26 65 -111 0 -101 -13 -121 -80 -121 -60 0 -70 14 -70 94 0 53 1 56 24
56 23 0 25 -5 28 -47 2 -36 7 -49 21 -51 15 -3 17 5 17 62 0 62 -1 66 -23 66
-12 0 -33 7 -45 16 -19 13 -22 24 -22 90 0 61 4 78 20 94 27 27 77 26 107 -2z
m171 6 c15 -11 22 -25 22 -50 0 -30 -3 -34 -25 -34 -18 0 -25 5 -25 20 0 13
-7 20 -20 20 -18 0 -20 -7 -20 -55 l0 -55 33 0 c50 0 57 -13 57 -115 0 -57 -4
-95 -12 -103 -7 -7 -33 -12 -58 -12 -25 0 -51 5 -58 12 -7 7 -12 39 -12 75 0
61 1 63 25 63 23 0 25 -3 25 -50 0 -43 3 -50 20 -50 18 0 20 7 20 65 0 64 -1
65 -27 65 -49 0 -63 24 -63 111 0 69 2 80 22 93 12 9 34 16 48 16 14 0 36 -7
48 -16z m-1281 -168 l2 -169 43 -1 c39 -1 43 -3 43 -26 0 -24 -2 -25 -70 -25
l-70 0 -3 198 -2 198 27 -3 28 -3 2 -169z m264 102 l22 -73 18 55 c10 30 18
63 18 73 1 12 9 17 31 17 l30 0 0 -195 0 -195 -25 0 c-25 0 -25 0 -26 98 l-1
97 -20 -64 c-10 -34 -22 -60 -26 -56 -4 4 -15 32 -24 63 l-16 57 -1 -96 c-1
-53 -4 -98 -7 -101 -3 -3 -14 -4 -25 -1 -18 5 -19 16 -19 199 l0 194 25 0 c21
0 27 -8 46 -72z m199 -123 l0 -195 -25 0 -25 0 0 195 0 195 25 0 25 0 0 -195z
m170 171 c0 -18 -6 -25 -22 -28 -23 -3 -23 -5 -25 -163 -1 -88 -2 -166 -3
-173 0 -8 -9 -12 -22 -10 -23 3 -23 5 -26 176 -2 164 -3 172 -22 172 -15 0
-20 7 -20 25 0 24 2 25 70 25 67 0 70 -1 70 -24z m70 -145 l0 -170 48 -3 c43
-3 47 -5 47 -28 0 -24 -2 -25 -70 -25 l-70 0 -3 198 -2 197 25 0 25 0 0 -169z
m258 147 c-3 -20 -10 -23 -51 -26 l-48 -3 3 -57 3 -57 38 -3 c31 -3 37 -7 37
-27 0 -20 -6 -24 -37 -27 l-38 -3 -3 -57 -3 -57 48 -3 c44 -3 48 -5 48 -28 0
-24 -2 -25 -70 -25 l-70 0 -3 198 -2 197 75 0 c73 0 76 -1 73 -22z m275 -402
c8 -20 -20 -43 -35 -28 -14 14 -3 42 16 42 7 0 16 -6 19 -14z m75 -20 c-4 -25
-36 -34 -44 -12 -8 21 13 46 32 39 8 -3 14 -15 12 -27z m-565 -52 c9 -9 -16
-54 -89 -159 -57 -83 -118 -194 -110 -202 2 -2 21 3 44 11 56 20 104 24 109 9
3 -9 -6 -13 -27 -13 -17 0 -56 -12 -86 -26 -30 -14 -61 -23 -69 -20 -43 16 16
153 126 295 35 46 68 90 74 97 11 15 18 17 28 8z m527 -14 c41 -41 19 -185
-43 -276 -85 -126 -196 -93 -166 49 14 63 38 112 86 175 54 72 88 87 123 52z
m-723 -34 c-3 -17 -8 -39 -12 -48 -6 -14 -2 -18 18 -18 42 0 40 -18 -2 -25
-38 -6 -39 -7 -64 -83 -14 -42 -28 -96 -32 -120 -5 -33 -11 -42 -23 -40 -26 5
-26 56 2 143 14 44 23 81 21 83 -2 2 -17 1 -33 -3 -32 -7 -81 -70 -123 -157
-21 -45 -39 -62 -39 -38 0 14 47 108 71 142 25 35 24 39 -7 27 -28 -10 -44 -5
-28 10 5 5 25 14 45 20 22 7 64 39 106 82 52 51 75 68 88 63 13 -5 16 -14 12
-38z m-347 -16 c0 -12 -10 -40 -21 -63 -21 -41 -20 -41 36 21 56 61 90 77 101
48 3 -8 -21 -74 -54 -148 -33 -73 -63 -143 -66 -155 -8 -26 -24 -30 -33 -8 -7
20 40 155 79 223 17 29 28 56 25 58 -8 9 -110 -119 -152 -191 -43 -74 -52 -83
-62 -59 -8 21 8 66 58 168 22 43 37 81 35 83 -7 7 -92 -103 -141 -182 -48 -77
-61 -87 -72 -58 -13 34 72 243 99 243 13 0 7 -30 -20 -97 -12 -29 -20 -53 -18
-53 2 0 28 30 56 68 85 110 150 154 150 102z m785 10 c3 -5 -3 -31 -15 -57
l-20 -48 53 58 c58 61 97 76 97 35 0 -32 -123 -318 -135 -314 -24 7 -7 85 43
191 l52 110 -53 -56 c-28 -31 -74 -93 -100 -138 -27 -45 -52 -81 -57 -81 -29
0 -10 70 54 200 l37 75 -41 -45 c-23 -24 -67 -83 -98 -129 -31 -47 -61 -83
-67 -81 -20 9 -6 88 28 162 33 72 52 97 64 84 3 -3 -6 -37 -20 -76 -15 -38
-25 -70 -23 -70 2 0 26 31 55 69 74 101 128 141 146 111z"/>
<path d="M1479 799 c-16 -17 -28 -34 -26 -37 1 -4 -11 -38 -27 -77 -16 -41
-29 -91 -30 -120 -1 -44 2 -50 20 -53 54 -8 132 113 141 218 9 97 -24 126 -78
69z"/>
<path d="M745 749 l-40 -42 30 8 c16 3 31 7 31 8 13 18 32 67 26 67 -4 0 -26
-19 -47 -41z"/>
</g>
</svg>
